<svg aria-hidden="true" style="position: absolute; width: 0; height: 0; overflow: hidden;" version="1.1" xmlns="http://www.w3.org/2000/svg" xmlns:xlink="http://www.w3.org/1999/xlink">
<defs>
<symbol id="icon-Star" viewBox="0 0 32 32">
<path d="M15.434 0.333c0.115-0.197 0.325-0.328 0.566-0.328s0.451 0.13 0.565 0.325l0.002 0.003 1.84 3.203c0.115 0.197 0.325 0.327 0.566 0.327 0.138 0 0.265-0.043 0.371-0.115l-0.002 0.001 3.081-2.107c0.103-0.071 0.231-0.114 0.368-0.114 0.346 0 0.628 0.268 0.652 0.608l0 0.002 0.239 3.643c0.023 0.342 0.306 0.61 0.652 0.61 0.036 0 0.071-0.003 0.106-0.009l-0.004 0 3.69-0.585c0.031-0.005 0.067-0.008 0.103-0.008 0.361 0 0.653 0.292 0.653 0.653 0 0.090-0.018 0.175-0.051 0.253l0.002-0.004-1.386 3.359c-0.031 0.074-0.049 0.159-0.049 0.249 0 0.296 0.197 0.545 0.466 0.626l0.005 0.001 3.555 1.036c0.274 0.082 0.47 0.331 0.47 0.627 0 0.193-0.084 0.367-0.218 0.487l-0.001 0.001-2.731 2.433c-0.135 0.12-0.219 0.294-0.219 0.488s0.084 0.368 0.218 0.487l0.001 0.001 2.731 2.433c0.134 0.12 0.218 0.294 0.218 0.487 0 0.296-0.196 0.545-0.466 0.626l-0.005 0.001-3.555 1.036c-0.274 0.082-0.471 0.331-0.471 0.627 0 0.090 0.018 0.176 0.051 0.254l-0.002-0.004 1.386 3.359c0.031 0.074 0.050 0.16 0.050 0.25 0 0.361-0.292 0.653-0.653 0.653-0.036 0-0.072-0.003-0.106-0.009l0.004 0-3.69-0.585c-0.031-0.005-0.066-0.008-0.103-0.008-0.346 0-0.628 0.268-0.652 0.608l-0 0.002-0.239 3.643c-0.023 0.342-0.306 0.611-0.652 0.611-0.138 0-0.266-0.043-0.371-0.116l0.002 0.001-3.081-2.107c-0.103-0.071-0.231-0.114-0.368-0.114-0.241 0-0.451 0.13-0.564 0.324l-0.002 0.003-1.84 3.203c-0.115 0.197-0.325 0.328-0.566 0.328s-0.451-0.13-0.565-0.325l-0.002-0.003-1.84-3.203c-0.115-0.197-0.325-0.327-0.566-0.327-0.138 0-0.265 0.043-0.371 0.115l0.002-0.001-3.081 2.107c-0.103 0.071-0.231 0.114-0.368 0.114-0.346 0-0.628-0.268-0.652-0.608l-0-0.002-0.239-3.643c-0.023-0.342-0.306-0.61-0.652-0.61-0.036 0-0.071 0.003-0.106 0.009l0.004-0-3.69 0.584c-0.031 0.005-0.067 0.008-0.103 0.008-0.361 0-0.653-0.292-0.653-0.653 0-0.090 0.018-0.175 0.051-0.253l-0.002 0.004 1.386-3.359c0.031-0.074 0.049-0.159 0.049-0.249 0-0.296-0.197-0.545-0.466-0.626l-0.005-0.001-3.555-1.035c-0.274-0.082-0.471-0.331-0.471-0.627 0-0.194 0.084-0.368 0.218-0.487l0.001-0.001 2.731-2.433c0.135-0.12 0.219-0.294 0.219-0.488s-0.084-0.368-0.218-0.487l-0.001-0.001-2.731-2.433c-0.134-0.12-0.218-0.294-0.218-0.487 0-0.296 0.196-0.545 0.466-0.626l0.005-0.001 3.555-1.036c0.274-0.082 0.471-0.331 0.471-0.627 0-0.090-0.018-0.176-0.051-0.254l0.002 0.004-1.386-3.359c-0.031-0.074-0.050-0.16-0.050-0.25 0-0.361 0.292-0.653 0.653-0.653 0.036 0 0.072 0.003 0.106 0.009l-0.004-0 3.69 0.585c0.031 0.005 0.066 0.008 0.103 0.008 0.346 0 0.629-0.268 0.652-0.608l0-0.002 0.239-3.643c0.023-0.342 0.306-0.611 0.652-0.611 0.138 0 0.266 0.043 0.371 0.116l-0.002-0.001 3.080 2.107c0.103 0.071 0.231 0.114 0.368 0.114 0.241 0 0.451-0.13 0.564-0.324l0.002-0.003 1.84-3.204z"></path>
</symbol>
<symbol id="icon-arrow" viewBox="0 0 48 32">
<path d="M40.166 18.934c-0.26-1.954-0.43-3.7-0.506-5.234-0.034-1.56 0.026-2.91 0.178-4.050l-37.94 21.904-1.798-3.108 37.942-21.906c-1.441-0.662-2.635-1.311-3.782-2.027l0.142 0.083c-1.689-1.102-3.069-2.083-4.413-3.11l0.177 0.129 2.278-1.316c4.812 2.024 9.214 3.036 13.204 3.034l0.77 1.332c-2.024 3.406-3.35 7.724-3.974 12.954l-2.28 1.314z"></path>
</symbol>
</defs>
</svg>
