
<svg xmlns="http://www.w3.org/2000/svg" aria-hidden="true" style="position:absolute;width:0;height:0;overflow:hidden"><defs>
<symbol id="icon-arrow" viewBox="0 0 48 32">
<path fill="#ecd979" style="fill: var(--color1, #ecd979)" d="M40.165 18.935c-0.261-1.955-0.429-3.7-0.506-5.235-0.033-1.56 0.026-2.91 0.178-4.050l-37.94 21.905-1.795-3.109 37.94-21.905c-1.092-0.488-2.305-1.137-3.639-1.945-1.291-0.834-2.704-1.827-4.238-2.981l2.278-1.315c4.813 2.024 9.215 3.036 13.206 3.035l0.769 1.332c-2.025 3.406-3.35 7.724-3.975 12.954l-2.278 1.315z"></path>
</symbol>
</defs>
<svg xmlns="http://www.w3.org/2000/svg" width="44" height="40" fill="none"><g fill="#ECD979" clip-path="url(#a)"><path d="M43.94 39.456H42.57v-1.39h1.372v1.39ZM42.569 39.456h-1.373v-1.39h1.373v1.39ZM37.08 39.456h-1.373v-1.39h1.372v1.39ZM35.707 39.456h-1.372v-1.39h1.372v1.39ZM34.335 39.456h-1.373v-1.39h1.373v1.39ZM26.1 39.456h-1.372v-1.39h1.373v1.39ZM17.867 39.456h-1.372v-1.39h1.372v1.39ZM9.633 39.456H8.261v-1.39h1.372v1.39ZM8.261 39.456H6.889v-1.39H8.26v1.39Z"/><path d="M6.889 39.456H5.516v-1.39H6.89v1.39ZM1.4 39.456H.026v-1.39H1.4v1.39ZM43.94 38.065H42.57v-1.391h1.372v1.391ZM38.452 38.065h-1.373v-1.391h1.373v1.391Z"/><path d="M37.08 38.065h-1.373v-1.391h1.372v1.391ZM35.707 38.065h-1.372v-1.391h1.372v1.391ZM26.1 38.065h-1.372v-1.391h1.373v1.391Z"/><path d="M24.729 38.065h-1.373v-1.391h1.372v1.391ZM19.24 38.065h-1.373v-1.391h1.372v1.391Z"/><path d="M17.867 38.065h-1.372v-1.391h1.372v1.391ZM8.261 38.065H6.889v-1.391H8.26v1.391Z"/><path d="M6.889 38.065H5.516v-1.391H6.89v1.391ZM5.516 38.065H4.144v-1.391h1.372v1.391ZM39.824 36.674h-1.372v-1.391h1.372v1.39ZM38.452 36.674h-1.373v-1.391h1.373v1.39Z"/><path d="M37.08 36.674h-1.373v-1.391h1.372v1.39ZM26.1 36.674h-1.372v-1.391h1.373v1.39Z"/><path d="M24.729 36.674h-1.373v-1.391h1.372v1.39Z"/><path d="M23.356 36.674h-1.372v-1.391h1.372v1.39ZM20.612 36.674H19.24v-1.391h1.372v1.39ZM19.24 36.674h-1.373v-1.391h1.372v1.39Z"/><path d="M17.867 36.674h-1.372v-1.391h1.372v1.39ZM6.889 36.674H5.516v-1.391H6.89v1.39ZM5.516 36.674H4.144v-1.391h1.372v1.39ZM4.144 36.674H2.772v-1.391h1.372v1.39ZM41.196 35.283h-1.372V33.89h1.372v1.392ZM39.824 35.283h-1.372V33.89h1.372v1.392ZM38.452 35.283h-1.373V33.89h1.373v1.392ZM31.59 35.283h-1.372V33.89h1.372v1.392ZM30.218 35.283h-1.372V33.89h1.372v1.392ZM28.846 35.283h-1.373V33.89h1.373v1.392ZM24.729 35.283h-1.373V33.89h1.372v1.392Z"/><path d="M23.356 35.283h-1.372V33.89h1.372v1.392ZM20.612 35.283H19.24V33.89h1.372v1.392ZM19.24 35.283h-1.373V33.89h1.372v1.392ZM15.123 35.283H13.75V33.89h1.373v1.392ZM13.75 35.283h-1.372V33.89h1.372v1.392ZM12.378 35.283h-1.372V33.89h1.372v1.392ZM5.516 35.283H4.144V33.89h1.372v1.392ZM4.144 35.283H2.772V33.89h1.372v1.392Z"/><path d="M2.772 35.283H1.399V33.89h1.373v1.392ZM42.569 33.891h-1.373V32.5h1.373v1.391ZM41.196 33.891h-1.372V32.5h1.372v1.391ZM39.824 33.891h-1.372V32.5h1.372v1.391ZM30.218 33.891h-1.372V32.5h1.372v1.391ZM28.846 33.891h-1.373V32.5h1.373v1.391ZM27.473 33.891h-1.372V32.5h1.372v1.391ZM23.356 33.891h-1.372V32.5h1.372v1.391ZM20.612 33.891H19.24V32.5h1.372v1.391ZM16.495 33.891h-1.372V32.5h1.372v1.391ZM15.123 33.891H13.75V32.5h1.373v1.391ZM13.75 33.891h-1.372V32.5h1.372v1.391Z"/><path d="M4.144 33.891H2.772V32.5h1.372v1.391Z"/><path d="M2.772 33.891H1.399V32.5h1.373v1.391Z"/><path d="M1.4 33.891H.026V32.5H1.4v1.391ZM42.569 32.5h-1.373v-1.391h1.373V32.5ZM41.196 32.5h-1.372v-1.391h1.372V32.5ZM28.846 32.5h-1.373v-1.391h1.373V32.5ZM27.473 32.5h-1.372v-1.391h1.372V32.5Z"/><path d="M26.1 32.5h-1.372v-1.391h1.373V32.5ZM17.867 32.5h-1.372v-1.391h1.372V32.5ZM16.495 32.5h-1.372v-1.391h1.372V32.5ZM15.123 32.5H13.75v-1.391h1.373V32.5ZM2.772 32.5H1.399v-1.391h1.373V32.5Z"/><path d="M1.4 32.5H.026v-1.391H1.4V32.5ZM42.569 31.109h-1.373v-1.392h1.373v1.392ZM35.707 31.109h-1.372v-1.392h1.372v1.392ZM23.356 31.109h-1.372v-1.392h1.372v1.392ZM20.612 31.109H19.24v-1.392h1.372v1.392ZM8.261 31.109H6.889v-1.392H8.26v1.392ZM1.4 31.109H.026v-1.392H1.4v1.392ZM35.707 29.717h-1.372v-1.39h1.372v1.39ZM34.335 29.717h-1.373v-1.39h1.373v1.39ZM24.729 29.717h-1.373v-1.39h1.372v1.39Z"/><path d="M23.356 29.717h-1.372v-1.39h1.372v1.39ZM20.612 29.717H19.24v-1.39h1.372v1.39ZM19.24 29.717h-1.373v-1.39h1.372v1.39ZM9.633 29.717H8.261v-1.39h1.372v1.39ZM8.261 29.717H6.889v-1.39H8.26v1.39ZM35.707 28.326h-1.372v-1.391h1.372v1.391ZM34.335 28.326h-1.373v-1.391h1.373v1.391ZM32.962 28.326H31.59v-1.391h1.372v1.391ZM26.1 28.326h-1.372v-1.391h1.373v1.391Z"/><path d="M24.729 28.326h-1.373v-1.391h1.372v1.391ZM19.24 28.326h-1.373v-1.391h1.372v1.391Z"/><path d="M17.867 28.326h-1.372v-1.391h1.372v1.391ZM11.006 28.326H9.633v-1.391h1.373v1.391ZM9.633 28.326H8.261v-1.391h1.372v1.391ZM8.261 28.326H6.889v-1.391H8.26v1.391ZM34.335 26.935h-1.373v-1.391h1.373v1.39ZM32.962 26.935H31.59v-1.391h1.372v1.39ZM27.473 26.935h-1.372v-1.391h1.372v1.39Z"/><path d="M26.1 26.935h-1.372v-1.391h1.373v1.39ZM17.867 26.935h-1.372v-1.391h1.372v1.39ZM16.495 26.935h-1.372v-1.391h1.372v1.39ZM11.006 26.935H9.633v-1.391h1.373v1.39ZM9.633 26.935H8.261v-1.391h1.372v1.39ZM39.824 25.544h-1.372v-1.392h1.372v1.392ZM38.452 25.544h-1.373v-1.392h1.373v1.392Z"/><path d="M37.08 25.544h-1.373v-1.392h1.372v1.392ZM32.962 25.544H31.59v-1.392h1.372v1.392ZM28.846 25.544h-1.373v-1.392h1.373v1.392ZM27.473 25.544h-1.372v-1.392h1.372v1.392ZM16.495 25.544h-1.372v-1.392h1.372v1.392ZM15.123 25.544H13.75v-1.392h1.373v1.392ZM11.006 25.544H9.633v-1.392h1.373v1.392ZM6.889 25.544H5.516v-1.392H6.89v1.392ZM5.516 25.544H4.144v-1.392h1.372v1.392ZM4.144 25.544H2.772v-1.392h1.372v1.392ZM43.94 24.152H42.57v-1.391h1.372v1.391ZM38.452 24.152h-1.373v-1.391h1.373v1.391Z"/><path d="M37.08 24.152h-1.373v-1.391h1.372v1.391ZM35.707 24.152h-1.372v-1.391h1.372v1.391ZM30.218 24.152h-1.372v-1.391h1.372v1.391ZM28.846 24.152h-1.373v-1.391h1.373v1.391ZM15.123 24.152H13.75v-1.391h1.373v1.391ZM13.75 24.152h-1.372v-1.391h1.372v1.391ZM8.261 24.152H6.889v-1.391H8.26v1.391Z"/><path d="M6.889 24.152H5.516v-1.391H6.89v1.391ZM5.516 24.152H4.144v-1.391h1.372v1.391ZM43.94 22.76H42.57v-1.39h1.372v1.39ZM42.569 22.76h-1.373v-1.39h1.373v1.39ZM37.08 22.76h-1.373v-1.39h1.372v1.39ZM35.707 22.76h-1.372v-1.39h1.372v1.39ZM34.335 22.76h-1.373v-1.39h1.373v1.39ZM31.59 22.76h-1.372v-1.39h1.372v1.39ZM30.218 22.76h-1.372v-1.39h1.372v1.39ZM21.984 22.76h-1.372v-1.39h1.372v1.39ZM13.75 22.76h-1.372v-1.39h1.372v1.39ZM12.378 22.76h-1.372v-1.39h1.372v1.39ZM9.633 22.76H8.261v-1.39h1.372v1.39ZM8.261 22.76H6.889v-1.39H8.26v1.39Z"/><path d="M6.889 22.76H5.516v-1.39H6.89v1.39ZM1.372 21.37H0v-1.392h1.372v1.392ZM2.772 21.37H1.399v-1.392h1.373v1.392ZM1.372 22.76H0v-1.39h1.372v1.39ZM1.372 19.978H0v-1.391h1.372v1.391ZM43.94 21.37H42.57v-1.392h1.372v1.392ZM42.569 21.37h-1.373v-1.392h1.373v1.392ZM41.196 21.37h-1.372v-1.392h1.372v1.392ZM23.356 21.37h-1.372v-1.392h1.372v1.392ZM21.984 21.37h-1.372v-1.392h1.372v1.392ZM20.612 21.37H19.24v-1.392h1.372v1.392ZM43.94 19.978H42.57v-1.391h1.372v1.391ZM42.569 19.978h-1.373v-1.391h1.373v1.391ZM37.08 19.978h-1.373v-1.391h1.372v1.391ZM35.707 19.978h-1.372v-1.391h1.372v1.391ZM34.335 19.978h-1.373v-1.391h1.373v1.391ZM31.59 19.978h-1.372v-1.391h1.372v1.391ZM30.218 19.978h-1.372v-1.391h1.372v1.391ZM21.984 19.978h-1.372v-1.391h1.372v1.391ZM13.75 19.978h-1.372v-1.391h1.372v1.391ZM12.378 19.978h-1.372v-1.391h1.372v1.391ZM9.633 19.978H8.261v-1.391h1.372v1.391ZM8.261 19.978H6.889v-1.391H8.26v1.391Z"/><path d="M6.889 19.978H5.516v-1.391H6.89v1.391ZM43.94 18.587H42.57v-1.391h1.372v1.39ZM38.452 18.587h-1.373v-1.391h1.373v1.39Z"/><path d="M37.08 18.587h-1.373v-1.391h1.372v1.39ZM35.707 18.587h-1.372v-1.391h1.372v1.39ZM30.218 18.587h-1.372v-1.391h1.372v1.39ZM28.846 18.587h-1.373v-1.391h1.373v1.39ZM15.123 18.587H13.75v-1.391h1.373v1.39ZM13.75 18.587h-1.372v-1.391h1.372v1.39ZM8.261 18.587H6.889v-1.391H8.26v1.39Z"/><path d="M6.889 18.587H5.516v-1.391H6.89v1.39ZM5.516 18.587H4.144v-1.391h1.372v1.39ZM39.824 17.196h-1.372v-1.392h1.372v1.392ZM38.452 17.196h-1.373v-1.392h1.373v1.392Z"/><path d="M37.08 17.196h-1.373v-1.392h1.372v1.392ZM32.962 17.196H31.59v-1.392h1.372v1.392ZM28.846 17.196h-1.373v-1.392h1.373v1.392ZM27.473 17.196h-1.372v-1.392h1.372v1.392ZM16.495 17.196h-1.372v-1.392h1.372v1.392ZM15.123 17.196H13.75v-1.392h1.373v1.392ZM11.006 17.196H9.633v-1.392h1.373v1.392ZM6.889 17.196H5.516v-1.392H6.89v1.392ZM5.516 17.196H4.144v-1.392h1.372v1.392ZM4.144 17.196H2.772v-1.392h1.372v1.392ZM34.335 15.804h-1.373v-1.391h1.373v1.391ZM32.962 15.804H31.59v-1.391h1.372v1.391ZM27.473 15.804h-1.372v-1.391h1.372v1.391Z"/><path d="M26.1 15.804h-1.372v-1.391h1.373v1.391ZM17.867 15.804h-1.372v-1.391h1.372v1.391ZM16.495 15.804h-1.372v-1.391h1.372v1.391ZM11.006 15.804H9.633v-1.391h1.373v1.391ZM9.633 15.804H8.261v-1.391h1.372v1.391ZM35.707 14.413h-1.372v-1.391h1.372v1.391ZM34.335 14.413h-1.373v-1.391h1.373v1.391ZM32.962 14.413H31.59v-1.391h1.372v1.391ZM26.1 14.413h-1.372v-1.391h1.373v1.391Z"/><path d="M24.729 14.413h-1.373v-1.391h1.372v1.391ZM19.24 14.413h-1.373v-1.391h1.372v1.391Z"/><path d="M17.867 14.413h-1.372v-1.391h1.372v1.391ZM11.006 14.413H9.633v-1.391h1.373v1.391ZM9.633 14.413H8.261v-1.391h1.372v1.391ZM8.261 14.413H6.889v-1.391H8.26v1.391ZM35.707 13.022h-1.372V11.63h1.372v1.392ZM34.335 13.022h-1.373V11.63h1.373v1.392ZM24.729 13.022h-1.373V11.63h1.372v1.392Z"/><path d="M23.356 13.022h-1.372V11.63h1.372v1.392ZM20.612 13.022H19.24V11.63h1.372v1.392ZM19.24 13.022h-1.373V11.63h1.372v1.392ZM9.633 13.022H8.261V11.63h1.372v1.392ZM8.261 13.022H6.889V11.63H8.26v1.392ZM35.707 11.63h-1.372v-1.39h1.372v1.39ZM23.356 11.63h-1.372v-1.39h1.372v1.39ZM20.612 11.63H19.24v-1.39h1.372v1.39ZM8.261 11.63H6.889v-1.39H8.26v1.39ZM42.569 10.24h-1.373V8.847h1.373v1.391ZM1.4 10.24H.026V8.847H1.4v1.391Z"/><path d="M42.569 8.848h-1.373V7.456h1.373v1.392ZM41.196 8.848h-1.372V7.456h1.372v1.392ZM28.846 8.848h-1.373V7.456h1.373v1.392ZM27.473 8.848h-1.372V7.456h1.372v1.392Z"/><path d="M26.1 8.848h-1.372V7.456h1.373v1.392ZM17.867 8.848h-1.372V7.456h1.372v1.392ZM16.495 8.848h-1.372V7.456h1.372v1.392ZM15.123 8.848H13.75V7.456h1.373v1.392ZM2.772 8.848H1.399V7.456h1.373v1.392Z"/><path d="M1.4 8.848H.026V7.456H1.4v1.392ZM42.569 7.457h-1.373V6.065h1.373v1.392ZM41.196 7.457h-1.372V6.065h1.372v1.392ZM39.824 7.457h-1.372V6.065h1.372v1.392ZM30.218 7.457h-1.372V6.065h1.372v1.392ZM28.846 7.457h-1.373V6.065h1.373v1.392ZM27.473 7.457h-1.372V6.065h1.372v1.392ZM23.356 7.457h-1.372V6.065h1.372v1.392ZM20.612 7.457H19.24V6.065h1.372v1.392ZM16.495 7.457h-1.372V6.065h1.372v1.392ZM15.123 7.457H13.75V6.065h1.373v1.392ZM13.75 7.457h-1.372V6.065h1.372v1.392ZM4.144 7.457H2.772V6.065h1.372v1.392Z"/><path d="M2.772 7.457H1.399V6.065h1.373v1.392Z"/><path d="M1.4 7.457H.026V6.065H1.4v1.392ZM41.196 6.065h-1.372V4.674h1.372v1.391ZM39.824 6.065h-1.372V4.674h1.372v1.391ZM38.452 6.065h-1.373V4.674h1.373v1.391ZM31.59 6.065h-1.372V4.674h1.372v1.391ZM30.218 6.065h-1.372V4.674h1.372v1.391ZM28.846 6.065h-1.373V4.674h1.373v1.391ZM24.729 6.065h-1.373V4.674h1.372v1.391Z"/><path d="M23.356 6.065h-1.372V4.674h1.372v1.391ZM20.612 6.065H19.24V4.674h1.372v1.391ZM19.24 6.065h-1.373V4.674h1.372v1.391ZM15.123 6.065H13.75V4.674h1.373v1.391ZM13.75 6.065h-1.372V4.674h1.372v1.391ZM12.378 6.065h-1.372V4.674h1.372v1.391ZM5.516 6.065H4.144V4.674h1.372v1.391ZM4.144 6.065H2.772V4.674h1.372v1.391Z"/><path d="M2.772 6.065H1.399V4.674h1.373v1.391ZM39.824 4.674h-1.372V3.283h1.372v1.39ZM38.452 4.674h-1.373V3.283h1.373v1.39Z"/><path d="M37.08 4.674h-1.373V3.283h1.372v1.39ZM26.1 4.674h-1.372V3.283h1.373v1.39Z"/><path d="M24.729 4.674h-1.373V3.283h1.372v1.39Z"/><path d="M23.356 4.674h-1.372V3.283h1.372v1.39ZM20.612 4.674H19.24V3.283h1.372v1.39ZM19.24 4.674h-1.373V3.283h1.372v1.39Z"/><path d="M17.867 4.674h-1.372V3.283h1.372v1.39ZM6.889 4.674H5.516V3.283H6.89v1.39ZM5.516 4.674H4.144V3.283h1.372v1.39ZM4.144 4.674H2.772V3.283h1.372v1.39ZM43.94 3.283H42.57V1.89h1.372v1.392ZM38.452 3.283h-1.373V1.89h1.373v1.392Z"/><path d="M37.08 3.283h-1.373V1.89h1.372v1.392ZM35.707 3.283h-1.372V1.89h1.372v1.392ZM26.1 3.283h-1.372V1.89h1.373v1.392Z"/><path d="M24.729 3.283h-1.373V1.89h1.372v1.392ZM19.24 3.283h-1.373V1.89h1.372v1.392Z"/><path d="M17.867 3.283h-1.372V1.89h1.372v1.392ZM8.261 3.283H6.889V1.89H8.26v1.392Z"/><path d="M6.889 3.283H5.516V1.89H6.89v1.392ZM5.516 3.283H4.144V1.89h1.372v1.392ZM43.94 1.891H42.57V.5h1.372v1.391ZM42.569 1.891h-1.373V.5h1.373v1.391ZM37.08 1.891h-1.373V.5h1.372v1.391ZM35.707 1.891h-1.372V.5h1.372v1.391ZM34.335 1.891h-1.373V.5h1.373v1.391ZM26.1 1.891h-1.372V.5h1.373v1.391ZM17.867 1.891h-1.372V.5h1.372v1.391ZM9.633 1.891H8.261V.5h1.372v1.391Z"/><path d="M8.261 1.891H6.889V.5H8.26v1.391Z"/><path d="M6.889 1.891H5.516V.5H6.89v1.391ZM1.4 1.891H.026V.5H1.4v1.391Z"/></g><defs><clipPath id="a"><path fill="#fff" d="M0 .5h44v39H0z"/></clipPath></defs>

<symbol id="icon-logo-facebook" viewBox="0 0 32 32">
<path fill="#fcf9f9" style="fill: var(--color1, #fcf9f9)" d="M19.52 4.64c0.24 0 0.48 0 0.96 0v3.6c-0.24 0-0.72 0-1.2 0s-0.96 0-1.2 0.24c-0.24 0.24-0.24 0.48-0.24 1.040 0 0.48 0 0.8 0 1.28h2.64v3.040h-2.64v13.2h-4.080v-13.28h-2.16v-3.040h2.16v-1.040c0-1.76 0.24-3.040 0.72-3.6 0.72-1.040 2.16-1.52 4.32-1.52 0.24 0.080 0.48 0.080 0.72 0.080z"></path>
</symbol>
<symbol id="icon-logo-instagram" viewBox="0 0 32 32">
<path fill="#fcf9f9" style="fill: var(--color1, #fcf9f9)" opacity="0.8" d="M28.717 10.756c-0.016-1.074-0.215-2.14-0.596-3.145-0.667-1.716-2.024-3.073-3.743-3.737-0.994-0.373-2.044-0.573-3.108-0.596-1.368-0.061-1.801-0.078-5.273-0.078s-3.917 0-5.274 0.078c-1.062 0.023-2.112 0.223-3.106 0.596-1.719 0.664-3.078 2.021-3.743 3.737-0.374 0.992-0.576 2.041-0.596 3.101-0.061 1.367-0.080 1.8-0.080 5.265s0 3.909 0.080 5.265c0.021 1.062 0.222 2.109 0.596 3.104 0.667 1.714 2.024 3.071 3.744 3.735 0.989 0.386 2.040 0.605 3.106 0.639 1.369 0.061 1.803 0.080 5.274 0.080s3.916 0 5.274-0.080c1.062-0.021 2.113-0.221 3.108-0.595 1.719-0.666 3.076-2.022 3.743-3.737 0.374-0.994 0.574-2.041 0.596-3.104 0.061-1.365 0.080-1.798 0.080-5.265-0.003-3.466-0.003-3.906-0.082-5.264zM15.99 22.531c-3.631 0-6.572-2.936-6.572-6.561s2.941-6.561 6.572-6.561c3.628 0 6.572 2.936 6.572 6.561s-2.944 6.561-6.572 6.561zM22.823 10.696c-0.849 0-1.532-0.684-1.532-1.53s0.684-1.53 1.532-1.53c0.846 0 1.531 0.684 1.531 1.53s-0.685 1.53-1.531 1.53z"></path>
<path fill="#fcf9f9" style="fill: var(--color1, #fcf9f9)" opacity="0.8" d="M15.992 19.976c2.211 0 4.004-1.793 4.004-4.004s-1.793-4.004-4.004-4.004c-2.211 0-4.004 1.793-4.004 4.004s1.793 4.004 4.004 4.004z"></path></symbol>
<symbol id="icon-logo-youtube" viewBox="0 0 32 32">
<path fill="#fcf9f9" style="fill: var(--color1, #fcf9f9)" opacity="0.8" d="M24.24 6c-1.36-0.080-4.16-0.16-8.4-0.16h-0.56c-4.080 0-6.8 0.080-8.16 0.24-1.84 0.16-3.12 0.64-3.84 1.28-0.64 0.56-1.12 1.6-1.28 2.96-0.080 0.88-0.16 2.72-0.16 5.52v0.4c0 2.64 0.080 4.48 0.24 5.36 0.24 1.28 0.64 2.24 1.44 2.8 0.8 0.64 2.16 1.040 4.080 1.2 1.36 0.080 4.16 0.16 8.4 0.16h0.56c4.080 0 6.8-0.080 8.16-0.24 1.84-0.16 3.12-0.64 3.84-1.28 0.64-0.56 1.12-1.6 1.28-2.96 0.080-0.88 0.16-2.72 0.16-5.52v-0.4c0-2.64-0.080-4.48-0.24-5.36-0.24-1.28-0.64-2.24-1.44-2.8-0.8-0.64-2.16-1.040-4.080-1.2zM21.12 15.84l-8.8 5.28v-10.56l8.8 5.28z"></path>
</symbol>
<symbol id="icon-menu-button-mob" viewBox="0 0 48 32">
<path fill="none" stroke="#ecd979" style="stroke: var(--color2, #ecd979)" stroke-linejoin="miter" stroke-linecap="round" stroke-miterlimit="4" stroke-width="2.6667" d="M8.638 5.455h38.029"></path>
<path fill="none" stroke="#ecd979" style="stroke: var(--color2, #ecd979)" stroke-linejoin="miter" stroke-linecap="round" stroke-miterlimit="4" stroke-width="2.6667" d="M8.638 24.849h38.029"></path>
<path fill="none" stroke="#ecd979" style="stroke: var(--color2, #ecd979)" stroke-linejoin="miter" stroke-linecap="round" stroke-miterlimit="4" stroke-width="2.6667" d="M20.116 15.151h26.551"></path>
</symbol>
<symbol id="icon-menu-button-tab" viewBox="0 0 47 32">
<path fill="none" stroke="#ecd979" style="stroke: var(--color2, #ecd979)" stroke-linejoin="miter" stroke-linecap="round" stroke-miterlimit="4" stroke-width="3.2" d="M8.742 5.188h36.591"></path>
<path fill="none" stroke="#ecd979" style="stroke: var(--color2, #ecd979)" stroke-linejoin="miter" stroke-linecap="round" stroke-miterlimit="4" stroke-width="3.2" d="M8.742 24.582h36.591"></path>
<path fill="none" stroke="#ecd979" style="stroke: var(--color2, #ecd979)" stroke-linejoin="miter" stroke-linecap="round" stroke-miterlimit="4" stroke-width="3.2" d="M19.965 14.885h25.368"></path>
</symbol>


</svg>